<?xml version="1.0" standalone="no"?>
<!DOCTYPE svg PUBLIC "-//W3C//DTD SVG 20010904//EN"
 "http://www.w3.org/TR/2001/REC-SVG-20010904/DTD/svg10.dtd">
<svg version="1.0" xmlns="http://www.w3.org/2000/svg"
 width="700.000000pt" height="700.000000pt" viewBox="0 0 700.000000 700.000000"
 preserveAspectRatio="xMidYMid meet">
<metadata>
Created by potrace 1.14, written by Peter Selinger 2001-2017
</metadata>
<g transform="translate(0.000000,700.000000) scale(0.100000,-0.100000)"
fill="#000000" stroke="none">
<path d="M2647 5572 l-128 -128 845 -844 c464 -465 848 -846 853 -847 4 -2 66
54 136 125 l127 128 -390 389 c-214 215 -389 394 -387 398 1 4 146 152 321
327 l320 320 -30 31 c-61 66 -227 229 -232 229 -3 0 -149 -144 -325 -320 -176
-176 -322 -320 -326 -320 -3 0 -150 144 -325 320 -176 176 -322 320 -325 320
-4 0 -64 -58 -134 -128z"/>
<path d="M2605 4090 c-215 -214 -392 -390 -395 -390 -3 0 -151 145 -329 323
l-323 323 -116 -116 c-64 -64 -123 -124 -131 -133 -12 -15 21 -51 308 -338
176 -177 321 -324 321 -328 0 -3 -144 -150 -320 -325 -176 -176 -320 -322
-320 -325 0 -3 58 -63 128 -134 l128 -127 845 845 c464 464 845 848 846 852 2
5 -55 66 -125 136 l-128 128 -389 -391z"/>
<path d="M4558 3631 l-848 -848 132 -132 131 -131 379 379 c209 209 386 385
394 392 12 10 67 -40 334 -307 175 -175 322 -320 327 -321 5 -2 66 55 136 125
l128 128 -326 325 -326 325 326 326 326 326 -132 131 c-72 72 -132 131 -133
131 0 -1 -382 -383 -848 -849z"/>
<path d="M2652 3159 l-132 -132 390 -390 c214 -214 390 -392 390 -396 0 -3
-144 -150 -320 -326 -176 -175 -320 -322 -320 -325 0 -3 58 -63 128 -133 l128
-127 325 325 326 325 325 -325 326 -325 126 126 c69 69 126 131 126 137 0 7
-380 391 -844 855 l-843 843 -131 -132z"/>
</g>
</svg>
