<?xml version="1.0" standalone="no"?>
<!DOCTYPE svg PUBLIC "-//W3C//DTD SVG 20010904//EN"
 "http://www.w3.org/TR/2001/REC-SVG-20010904/DTD/svg10.dtd">
<svg version="1.0" xmlns="http://www.w3.org/2000/svg"
 width="700.000000pt" height="700.000000pt" viewBox="0 0 700.000000 700.000000"
 preserveAspectRatio="xMidYMid meet">
<metadata>
Created by potrace 1.14, written by Peter Selinger 2001-2017
</metadata>
<g transform="translate(0.000000,700.000000) scale(0.100000,-0.100000)"
fill="#000000" stroke="none">
<path d="M555 6985 c-252 -55 -448 -236 -527 -487 l-23 -73 0 -2925 0 -2925
23 -74 c83 -263 298 -450 562 -491 55 -8 829 -10 2960 -8 l2885 3 80 28 c232
81 399 258 462 489 17 59 18 233 18 2983 l0 2920 -23 72 c-79 252 -267 427
-523 487 -56 13 -404 15 -2949 15 -2348 -1 -2896 -3 -2945 -14z m5876 -406
c98 -46 178 -148 197 -250 5 -24 8 -1308 7 -2854 -2 -2605 -3 -2813 -18 -2854
-24 -61 -84 -137 -137 -172 -96 -64 131 -59 -3000 -57 l-2855 3 -55 26 c-100
47 -180 146 -197 244 -5 28 -9 1261 -8 2860 1 2586 3 2813 18 2853 38 99 112
172 215 213 45 17 160 18 2912 16 l2865 -2 56 -26z"/>
<path d="M2647 5572 l-128 -128 845 -844 c465 -465 848 -846 853 -847 4 -2 66
54 136 125 l127 127 -393 393 -393 393 323 322 c177 177 323 325 323 328 0 7
-250 259 -257 259 -3 0 -149 -144 -325 -320 -176 -176 -323 -320 -327 -320 -3
0 -150 144 -326 320 -175 176 -322 320 -325 320 -3 0 -63 -58 -133 -128z"/>
<path d="M2605 4090 c-214 -214 -393 -389 -398 -387 -4 1 -152 146 -327 322
l-320 319 -41 -39 c-80 -78 -194 -192 -208 -208 -12 -15 22 -52 308 -338 176
-177 321 -324 321 -328 0 -3 -144 -150 -320 -325 -251 -252 -317 -323 -310
-335 5 -9 62 -69 127 -133 l119 -118 849 850 850 850 -130 130 -131 130 -389
-390z"/>
<path d="M4558 3631 l-847 -848 131 -132 131 -131 390 390 c214 214 392 390
395 390 4 0 151 -144 326 -320 176 -176 322 -320 326 -320 3 0 63 58 133 128
l127 128 -325 325 -326 325 326 326 326 326 -132 131 c-73 72 -133 131 -133
131 -1 -1 -382 -382 -848 -849z"/>
<path d="M2652 3159 l-132 -131 390 -390 c214 -215 390 -393 390 -397 0 -3
-145 -151 -322 -328 l-323 -323 130 -130 131 -131 325 326 325 326 326 -326
326 -325 126 126 c69 69 126 131 126 137 0 5 -380 390 -843 854 l-844 843
-131 -131z"/>
</g>
</svg>
